<svg id="Layer_1" data-name="Layer 1" xmlns="http://www.w3.org/2000/svg" xmlns:xlink="http://www.w3.org/1999/xlink" viewBox="0 0 376 192"><defs><style>.cls-1{fill:url(#radial-gradient);}.cls-2{fill:#01d277;fill-opacity:0.83;}</style><radialGradient id="radial-gradient" cx="186.07" cy="73.74" r="1" gradientTransform="matrix(312, -2, -2.62, -409.1, -57657.85, 30498.25)" gradientUnits="userSpaceOnUse"><stop offset="0" stop-color="#0570ac" stop-opacity="0.46"/><stop offset="1" stop-color="#081b23" stop-opacity="0"/></radialGradient></defs><title>app-header</title><rect class="cls-1" width="376" height="192"/><path class="cls-2" d="M242.41,188.14,354.14,76.41a2,2,0,0,1,2.83,0h0a2,2,0,0,1,0,2.83L245.24,191a2,2,0,0,1-2.83,0h0A2,2,0,0,1,242.41,188.14Z" transform="translate(0 0)"/><path class="cls-2" d="M44.55,0,24.41,20.14A2,2,0,0,0,27.24,23l23-23Z" transform="translate(0 0)"/><path class="cls-2" d="M71.55,0,24.41,47.14A2,2,0,0,0,27.24,50l50-50Z" transform="translate(0 0)"/><path class="cls-2" d="M309.55,0,280.41,29.14A2,2,0,0,0,283.24,32l32-32Z" transform="translate(0 0)"/><path class="cls-2" d="M334.55,0,269.41,65.14A2,2,0,0,0,272.24,68l68-68Z" transform="translate(0 0)"/><path class="cls-2" d="M108,70.41a2,2,0,0,0-2.83,0L0,175.55v5.66l108-108A2,2,0,0,0,108,70.41Z" transform="translate(0 0)"/></svg>