<svg id="Layer_1" data-name="Layer 1" xmlns="http://www.w3.org/2000/svg" viewBox="0 0 66 59"><defs><style>.cls-1,.cls-2{fill:#01d277;}.cls-1{fill-rule:evenodd;}</style></defs><title>logo</title><path class="cls-1" d="M59.57,55.14A6.12,6.12,0,0,0,66,48.66V6.48A6.13,6.13,0,0,0,59.57,0H6.43A6.13,6.13,0,0,0,0,6.48V59l3.3-3.86V6.48A3.14,3.14,0,0,1,6.43,3.33H59.57A3.14,3.14,0,0,1,62.7,6.48V48.66a3.15,3.15,0,0,1-3.13,3.16H11.32L8,55.14l0,0"/><path class="cls-1" d="M16.14,20h1.72V12.79H20V11H14v1.79h2.14Z"/><path class="cls-1" d="M26.28,20H28V11H26.28v3.6H23.72V11H22v9h1.72V16.4h2.56Z"/><path class="cls-1" d="M35,18.2H31.74V16.4h2.78V14.6H31.74V12.8h3.11V11H30v9h5Z"/><path class="cls-1" d="M18,26.89,14.56,23H14v9h1.77V27.05L18,29.43l2.23-2.38V32H22V23h-.55Z"/><path class="cls-1" d="M28.5,23c-6,0-6,9,0,9S34.5,23,28.5,23Zm0,7.19c-3.49,0-3.49-5.39,0-5.39S32,30.19,28.5,30.19Z"/><rect class="cls-2" x="43" y="23" width="2" height="9"/><path class="cls-1" d="M48.74,30.2V28.4h2.78V26.6H48.74V24.8h3.11V23H47v9h5V30.2Z"/><path class="cls-1" d="M14,35h2.62c5.84,0,5.84,9,0,9H14Zm1.76,7.2h.86c3.41,0,3.41-5.4,0-5.4h-.86Z"/><path class="cls-1" d="M28.1,39.5a2.2,2.2,0,0,0,.8-1.77A2.43,2.43,0,0,0,26.44,35H23v9h3.44a2.51,2.51,0,0,0,1.82-.8A2.72,2.72,0,0,0,29,41.3,2.2,2.2,0,0,0,28.1,39.5Zm-3.35-2.71h1.54a.92.92,0,0,1,0,1.82H24.75Zm0,5.41h1.54a.82.82,0,0,0,.62-.26.92.92,0,0,0,0-1.28.85.85,0,0,0-.62-.26H24.75Z"/><path class="cls-1" d="M37.5,27.76,35.1,23H33l4.3,9h.41L42,23H39.9Z"/></svg>